Coordinates
version=1
nRows=16
nColumns=40
inDegrees=yes

Units are S.I. units (second, meters, Newtons, ...)
Angles are in degrees.

endheader
time	pelvis_tilt	pelvis_list	pelvis_rotation	pelvis_tx	pelvis_ty	pelvis_tz	hip_flexion_r	hip_adduction_r	hip_rotation_r	knee_angle_r	knee_angle_r_beta	ankle_angle_r	subtalar_angle_r	mtp_angle_r	hip_flexion_l	hip_adduction_l	hip_rotation_l	knee_angle_l	knee_angle_l_beta	ankle_angle_l	subtalar_angle_l	mtp_angle_l	lumbar_extension	lumbar_bending	lumbar_rotation	arm_flex_r	arm_add_r	arm_rot_r	elbow_flex_r	pro_sup_r	wrist_flex_r	wrist_dev_r	arm_flex_l	arm_add_l	arm_rot_l	elbow_flex_l	pro_sup_l	wrist_flex_l	wrist_dev_l
      0.00000000	      2.50042268	      1.30286471	      1.79779004	     -1.50379650	      0.89563949	     -1.55932849	     24.64529018	      0.52990404	    -10.35189200	    -26.74020990	     -0.46670471	     -2.30493944	     -2.47904969	     -1.94550014	    -10.50549759	     -3.87439385	     10.52535993	    -11.84014396	     -0.20664950	     11.43767989	     -7.16048188	     -3.10398301	     -9.12352879	      1.59547033	     -6.39582665	      1.04279342	     -9.22728866	     19.88235828	     15.61436480	     89.95437384	      0.00000000	      0.00000000	     18.81931721	     15.36011250	    -11.22418091	     33.81195671	     89.95437384	      0.00000000	      0.00000000
      0.01000000	      2.12834987	      1.53247026	      1.56354774	     -1.49544047	      0.89373637	     -1.55990713	     25.35647567	      0.31191714	    -11.36449109	    -24.99484663	     -0.43624237	     -2.55128925	     -2.33019683	     -1.86208374	    -10.75621724	     -4.23234820	     10.62441598	    -11.75766405	     -0.20520995	     11.76590911	     -7.26035723	     -3.16558296	     -8.83459404	      1.31788097	     -6.11388204	      1.05465324	     -9.09942600	     19.91989625	     15.46368273	     89.95437384	      0.00000000	      0.00000000	     18.93880793	     15.20831317	    -11.32958431	     34.38250705	     89.95437384	      0.00000000	      0.00000000
      0.02000000	      2.02924300	      1.13856726	      1.89440848	     -1.48726492	      0.89250994	     -1.56059772	     25.30490240	      0.59629820	    -13.11846470	    -22.46123276	     -0.39202247	     -4.23036227	     -1.28484996	     -1.73769086	    -11.04805023	     -3.71961977	     10.25325198	    -12.08107184	     -0.21085448	     12.01937883	     -7.36631883	     -3.34378300	     -8.96357117	      1.77415261	     -6.43720732	      1.15703604	     -9.02303982	     19.87121967	     15.59417232	     89.95437384	      0.00000000	      0.00000000	     18.82975120	     15.35143256	    -11.58072749	     35.52143523	     89.95437384	      0.00000000	      0.00000000
      0.03000000	      2.14451163	      0.88036223	      2.14928453	     -1.47849510	      0.89148522	     -1.56118273	     25.10284336	      0.68390781	    -15.30161463	    -20.50991035	     -0.35796546	     -4.77107473	     -0.07130449	     -1.90139017	    -11.64918884	     -3.30252997	     10.26151283	    -12.36751311	     -0.21585382	     12.26036159	     -7.75381275	     -3.68037960	     -9.24267395	      2.06419323	     -6.57465869	      1.16008479	     -8.93869298	     19.83600406	     15.71502894	     89.95437384	      0.00000000	      0.00000000	     18.85525338	     15.23553230	    -11.58599166	     36.22122395	     89.95437384	      0.00000000	      0.00000000
      0.04000000	      2.07551185	      0.69622714	      2.25796987	     -1.46974506	      0.89026510	     -1.56151578	     25.10129321	      0.79937103	    -17.08298390	    -18.81493479	     -0.32838256	     -5.02980449	      1.47356835	     -2.19099554	    -12.01664741	     -2.94668039	     10.44554491	    -12.79041102	     -0.22323479	     12.40895347	     -8.34969376	     -3.88477631	     -9.33069619	      2.25115611	     -6.56486770	      1.14317744	     -8.84694538	     19.77578278	     15.86765125	     89.95437384	      0.00000000	      0.00000000	     18.80619912	     15.10516930	    -11.59513198	     36.86333387	     89.95437384	      0.00000000	      0.00000000
      0.05000000	      2.06165029	      0.54704682	      2.42651467	     -1.46069382	      0.88911156	     -1.56207077	     25.01331429	      0.75623336	    -19.21283677	    -17.46001285	     -0.30473471	     -4.94447288	      3.94374468	     -3.03831580	    -12.46358075	     -2.61674277	     10.79509643	    -13.13179828	     -0.22919312	     12.18204685	     -9.32129291	     -4.29270168	     -9.45066560	      2.42653456	     -6.58278386	      1.06853691	     -8.82342582	     19.74344469	     16.09956809	     89.95437384	      0.00000000	      0.00000000	     18.69462598	     14.93119307	    -11.60499525	     37.48081145	     89.95437384	      0.00000000	      0.00000000
      0.06000000	      1.89189548	      0.38841022	      2.55901556	     -1.45181566	      0.88782968	     -1.56247495	     24.97750529	      0.95393074	    -20.22168355	    -16.10952204	     -0.28116420	     -4.71442820	      4.93774666	     -3.49440310	    -12.66986411	     -2.34714205	     10.76011228	    -13.58444090	     -0.23709322	     12.22984688	     -9.48185148	     -4.50883711	     -9.42441195	      2.60117085	     -6.56731826	      1.05926421	     -8.75984103	     19.64297012	     16.22261111	     89.95437384	      0.00000000	      0.00000000	     18.55299068	     14.72284541	    -11.57515657	     37.98701917	     89.95437384	      0.00000000	      0.00000000
      0.07000000	      1.55202183	      0.40805110	      2.65357002	     -1.44285155	      0.88634441	     -1.56296755	     25.21081281	      0.96930253	    -20.58271734	    -15.30849379	     -0.26718362	     -4.14811030	      5.27501118	     -3.65872315	    -12.74876499	     -2.34827975	     10.57692314	    -13.87237843	     -0.24211868	     12.07959364	     -9.41562738	     -4.58039325	     -9.20253136	      2.58057026	     -6.50583993	      1.01429316	     -8.70414279	     19.59572719	     16.33647290	     89.95437384	      0.00000000	      0.00000000	     18.35630797	     14.49778253	    -11.61596833	     38.39007462	     89.95437384	      0.00000000	      0.00000000
      0.08000000	      1.35062508	      0.44573926	      2.65905989	     -1.43363455	      0.88515737	     -1.56338167	     25.36363118	      0.92298163	    -20.84388515	    -15.10125715	     -0.26356666	     -3.80387356	      5.27047280	     -3.71864482	    -12.94610435	     -2.34181158	     10.44921382	    -14.35741830	     -0.25058422	     12.13021363	     -9.31807782	     -4.61622891	     -9.12784836	      2.54015576	     -6.31114527	      0.97673887	     -8.67894065	     19.53462456	     16.45414403	     89.95437384	      0.00000000	      0.00000000	     18.13908230	     14.20396720	    -11.60851240	     38.71551415	     89.95437384	      0.00000000	      0.00000000
      0.09000000	      1.10100940	      0.52744483	      2.74111353	     -1.42411537	      0.88393663	     -1.56397397	     25.62607761	      0.77636256	    -20.56802407	    -15.47862097	     -0.27015290	     -3.78945064	      5.06673419	     -3.64880512	    -13.02700341	     -2.37987939	     10.22403528	    -14.96473855	     -0.26118396	     11.82057601	     -9.01423455	     -4.53523393	     -8.97067360	      2.47828584	     -6.19580884	      0.81812878	     -8.71839619	     19.44443717	     16.79978834	     89.95437384	      0.00000000	      0.00000000	     17.81816802	     13.90416948	    -11.60517800	     38.99398620	     89.95437384	      0.00000000	      0.00000000
      0.10000000	      1.05823976	      0.34907111	      2.92935959	     -1.41405577	      0.88309495	     -1.56446909	     25.57926213	      0.81294544	    -20.81082972	    -16.18101727	     -0.28241203	     -3.66750095	      4.52733389	     -3.65938560	    -13.38966131	     -2.09849674	      9.77475811	    -15.50925831	     -0.27068762	     11.91187384	     -8.98952968	     -4.59670070	     -8.96539440	      2.70717463	     -6.15743136	      0.87628180	     -8.65150811	     19.41838815	     16.54995256	     89.95437384	      0.00000000	      0.00000000	     17.41181756	     13.58038475	    -11.58387025	     39.24499832	     89.95437384	      0.00000000	      0.00000000
      0.11000000	      1.00343257	      0.26504434	      3.31086652	     -1.40376617	      0.88233927	     -1.56538909	     25.49689817	      0.66134042	    -20.92183510	    -17.18100995	     -0.29986519	     -4.02652474	      3.39987545	     -3.57400896	    -13.64154330	     -1.87674638	      9.32654964	    -16.13414686	     -0.28159398	     11.59542074	     -8.73220057	     -4.67932478	     -8.91809025	      2.87748209	     -6.44340074	      0.87734148	     -8.64188986	     19.38618633	     16.59811540	     89.95437384	      0.00000000	      0.00000000	     16.79121308	     13.32846760	    -11.40509603	     39.55615586	     89.95437384	      0.00000000	      0.00000000
      0.12000000	      0.97263928	      0.15407824	      3.51980251	     -1.39317912	      0.88182632	     -1.56599511	     25.36936089	      0.59838913	    -21.34676874	    -18.11106142	     -0.31609765	     -6.00525079	      1.85398158	     -3.16758751	    -13.97311970	     -1.63372088	      8.81977420	    -16.80595476	     -0.29331924	     11.17284701	     -8.51596322	     -4.69593575	     -8.88689912	      3.05939960	     -6.44100032	      0.86184878	     -8.64435594	     19.42965090	     16.54545319	     89.95437384	      0.00000000	      0.00000000	     16.22578967	     12.94058023	    -11.24337613	     39.61634415	     89.95437384	      0.00000000	      0.00000000
      0.13000000	      0.80344055	     -0.19087104	      3.61725378	     -1.38295019	      0.88147340	     -1.56644971	     25.36217270	      0.92977043	    -20.92489372	    -18.72476921	     -0.32680887	     -6.93468782	      1.22018976	     -2.94804015	    -13.96381714	     -1.23951083	      8.27474695	    -17.59128914	     -0.30702592	     10.50154589	     -8.02318514	     -4.64717269	     -8.74585971	      3.49940341	     -6.31829674	      0.89322454	     -8.72651416	     19.47168007	     16.55194461	     89.95437384	      0.00000000	      0.00000000	     15.65504949	     12.50885935	    -11.11711143	     39.56384605	     89.95437384	      0.00000000	      0.00000000
      0.14000000	      0.84650009	     -1.03234232	      3.67069202	     -1.37240923	      0.88201331	     -1.56599311	     24.60931024	      2.37067347	    -19.46850816	    -17.97455103	     -0.31371510	     -7.98624452	     -3.03044458	     -2.57517710	    -13.98031723	     -0.03855955	      8.63185945	    -18.84059923	     -0.32883049	      9.71186606	     -8.11982097	     -5.71449824	     -8.82557272	      4.43076971	     -6.14366169	      1.02000874	     -8.88188727	     20.20754223	     16.53955737	     89.95437384	      0.00000000	      0.00000000	     14.98992594	     11.94020521	    -10.43371169	     39.32251078	     89.95437384	      0.00000000	      0.00000000
      0.15000000	      0.68286330	     -1.34389273	      3.55258180	     -1.36195484	      0.88242283	     -1.56617130	     24.59022976	      2.69380758	    -19.15024473	    -18.71274038	     -0.32659893	     -7.81933764	     -3.03607814	     -2.53415546	    -13.87358359	      0.27792049	      8.12133758	    -19.88432040	     -0.34704686	      8.89510304	     -7.60438705	     -5.55767967	     -8.72004265	      4.82161845	     -5.78055820	      1.10906774	     -8.98382089	     20.20669590	     16.47566628	     89.95437384	      0.00000000	      0.00000000	     14.35637332	     11.48414722	    -10.39335533	     39.02379592	     89.95437384	      0.00000000	      0.00000000
